<?xml version="1.0" encoding="utf-8"?>
<svg width="1024px" height="1024px" viewbox="0 0 1024 1024" version="1.1" xmlns:xlink="http://www.w3.org/1999/xlink" xmlns="http://www.w3.org/2000/svg">
  <defs>
    <rect width="1024" height="1024" id="artboard_1" />
    <clipPath id="clip_1">
      <use xlink:href="#artboard_1" clip-rule="evenodd" />
    </clipPath>
  </defs>
  <g id="Artboard" clip-path="url(#clip_1)">
    <use xlink:href="#artboard_1" stroke="none" fill="#FFFFFF" fill-opacity="0" />
    <g id="Group" transform="translate(120 120)">
      <path d="M100 0C100 -8.74228e-06 100 -8.74228e-06 100 -8.74228e-06C111.152 0.0135694 122.305 -0.00164562 133.457 0.0407257C136.608 0.052697 139.758 0.099359 142.909 0.163017C145.143 0.208163 147.377 0.276281 149.609 0.367126C165.23 1.00268 184.249 2.68866 192.892 17.783C195.049 21.5499 196.425 25.719 197.363 29.942C199.335 38.8152 199.654 48.0377 199.837 57.0896C200.094 69.8085 199.989 91.2971 200 100C200 100 200 100 200 100C199.989 108.706 200.094 130.191 199.837 142.909C199.654 151.961 199.335 161.184 197.363 170.057C196.425 174.28 195.049 178.45 192.892 182.217C184.249 197.311 165.231 198.997 149.611 199.633C147.378 199.724 145.144 199.792 142.91 199.837C139.76 199.901 136.61 199.947 133.459 199.959C122.306 200.002 111.153 199.986 100 200C100 200 100 200 100 200C91.3197 199.989 69.8038 200.094 57.0913 199.837C48.039 199.654 38.8162 199.335 29.9426 197.363C25.7196 196.425 21.5504 195.049 17.7834 192.892C2.68911 184.249 1.0028 165.231 0.36718 149.611C0.276328 147.378 0.208199 145.144 0.163048 142.91C0.0993848 139.76 0.0527202 136.61 0.0407486 133.459C-0.00163114 122.306 0.01358 111.153 -4.37114e-06 100C-4.37114e-06 100 -4.37114e-06 100 -4.37114e-06 100C0.0105662 91.317 -0.0939007 69.8052 0.163017 57.0913C0.345942 48.039 0.665183 38.8162 2.63683 29.9426C3.57516 25.7195 4.95119 21.5504 7.1081 17.7834C15.7507 2.6891 34.7694 1.0028 50.3895 0.367172C52.6221 0.276321 54.8557 0.208198 57.0897 0.163048C60.2396 0.0993859 63.3901 0.0527199 66.5406 0.0407486C77.6937 -0.00163004 88.8469 0.0135829 100 0Z" transform="translate(0 584)" id="Rectangle-4" fill="none" fill-rule="evenodd" stroke="#515151" stroke-width="100" />
      <path d="M100 0C100 -8.74228e-06 100 -8.74228e-06 100 -8.74228e-06C111.152 0.0135694 122.305 -0.00164562 133.457 0.0407257C136.608 0.052697 139.758 0.099359 142.909 0.163017C145.143 0.208163 147.377 0.276281 149.609 0.367126C165.23 1.00268 184.249 2.68866 192.892 17.783C195.049 21.5499 196.425 25.719 197.363 29.942C199.335 38.8152 199.654 48.0377 199.837 57.0896C200.094 69.8085 199.989 91.2971 200 100C200 100 200 100 200 100C199.989 108.706 200.094 130.191 199.837 142.909C199.654 151.961 199.335 161.184 197.363 170.057C196.425 174.28 195.049 178.45 192.892 182.217C184.249 197.311 165.231 198.997 149.611 199.633C147.378 199.724 145.144 199.792 142.91 199.837C139.76 199.901 136.61 199.947 133.459 199.959C122.306 200.002 111.153 199.986 100 200C100 200 100 200 100 200C91.3197 199.989 69.8038 200.094 57.0913 199.837C48.039 199.654 38.8162 199.335 29.9426 197.363C25.7196 196.425 21.5504 195.049 17.7834 192.892C2.68911 184.249 1.0028 165.231 0.36718 149.611C0.276328 147.378 0.208199 145.144 0.163048 142.91C0.0993848 139.76 0.0527202 136.61 0.0407486 133.459C-0.00163114 122.306 0.01358 111.153 -4.37114e-06 100C-4.37114e-06 100 -4.37114e-06 100 -4.37114e-06 100C0.0105662 91.317 -0.0939007 69.8052 0.163017 57.0913C0.345942 48.039 0.665183 38.8162 2.63683 29.9426C3.57516 25.7195 4.95119 21.5504 7.1081 17.7834C15.7507 2.6891 34.7694 1.0028 50.3895 0.367172C52.6221 0.276321 54.8557 0.208198 57.0897 0.163048C60.2396 0.0993859 63.3901 0.0527199 66.5406 0.0407486C77.6937 -0.00163004 88.8469 0.0135829 100 0Z" transform="translate(584 584)" id="Rectangle-3" fill="none" fill-rule="evenodd" stroke="#515151" stroke-width="100" />
      <path d="M100 0C100 -8.74228e-06 100 -8.74228e-06 100 -8.74228e-06C111.152 0.0135694 122.305 -0.00164562 133.457 0.0407257C136.608 0.052697 139.758 0.099359 142.909 0.163017C145.143 0.208163 147.377 0.276281 149.609 0.367126C165.23 1.00268 184.249 2.68866 192.892 17.783C195.049 21.5499 196.425 25.719 197.363 29.942C199.335 38.8152 199.654 48.0377 199.837 57.0896C200.094 69.8085 199.989 91.2971 200 100C200 100 200 100 200 100C199.989 108.706 200.094 130.191 199.837 142.909C199.654 151.961 199.335 161.184 197.363 170.057C196.425 174.28 195.049 178.45 192.892 182.217C184.249 197.311 165.231 198.997 149.611 199.633C147.378 199.724 145.144 199.792 142.91 199.837C139.76 199.901 136.61 199.947 133.459 199.959C122.306 200.002 111.153 199.986 100 200C100 200 100 200 100 200C91.3197 199.989 69.8038 200.094 57.0913 199.837C48.039 199.654 38.8162 199.335 29.9426 197.363C25.7196 196.425 21.5504 195.049 17.7834 192.892C2.68911 184.249 1.0028 165.231 0.36718 149.611C0.276328 147.378 0.208199 145.144 0.163048 142.91C0.0993848 139.76 0.0527202 136.61 0.0407486 133.459C-0.00163114 122.306 0.01358 111.153 -4.37114e-06 100C-4.37114e-06 100 -4.37114e-06 100 -4.37114e-06 100C0.0105662 91.317 -0.0939007 69.8052 0.163017 57.0913C0.345942 48.039 0.665183 38.8162 2.63683 29.9426C3.57516 25.7195 4.95119 21.5504 7.1081 17.7834C15.7507 2.6891 34.7694 1.0028 50.3895 0.367172C52.6221 0.276321 54.8557 0.208198 57.0897 0.163048C60.2396 0.0993859 63.3901 0.0527199 66.5406 0.0407486C77.6937 -0.00163004 88.8469 0.0135829 100 0Z" transform="translate(584 0)" id="Rectangle-2" fill="none" fill-rule="evenodd" stroke="#515151" stroke-width="100" />
      <path d="M100 0C100 -8.74228e-06 100 -8.74228e-06 100 -8.74228e-06C111.152 0.0135694 122.305 -0.00164562 133.457 0.0407257C136.608 0.052697 139.758 0.099359 142.909 0.163017C145.143 0.208163 147.377 0.276281 149.609 0.367126C165.23 1.00268 184.249 2.68866 192.892 17.783C195.049 21.5499 196.425 25.719 197.363 29.942C199.335 38.8152 199.654 48.0377 199.837 57.0896C200.094 69.8085 199.989 91.2971 200 100C200 100 200 100 200 100C199.989 108.706 200.094 130.191 199.837 142.909C199.654 151.961 199.335 161.184 197.363 170.057C196.425 174.28 195.049 178.45 192.892 182.217C184.249 197.311 165.231 198.997 149.611 199.633C147.378 199.724 145.144 199.792 142.91 199.837C139.76 199.901 136.61 199.947 133.459 199.959C122.306 200.002 111.153 199.986 100 200C100 200 100 200 100 200C91.3197 199.989 69.8038 200.094 57.0913 199.837C48.039 199.654 38.8162 199.335 29.9426 197.363C25.7196 196.425 21.5504 195.049 17.7834 192.892C2.68911 184.249 1.0028 165.231 0.36718 149.611C0.276328 147.378 0.208199 145.144 0.163048 142.91C0.0993848 139.76 0.0527202 136.61 0.0407486 133.459C-0.00163114 122.306 0.01358 111.153 -4.37114e-06 100C-4.37114e-06 100 -4.37114e-06 100 -4.37114e-06 100C0.0105662 91.317 -0.0939007 69.8052 0.163017 57.0913C0.345942 48.039 0.665183 38.8162 2.63683 29.9426C3.57516 25.7195 4.95119 21.5504 7.1081 17.7834C15.7507 2.6891 34.7694 1.0028 50.3895 0.367172C52.6221 0.276321 54.8557 0.208198 57.0897 0.163048C60.2396 0.0993859 63.3901 0.0527199 66.5406 0.0407486C77.6937 -0.00163004 88.8469 0.0135829 100 0Z" id="Rectangle-1" fill="none" fill-rule="evenodd" stroke="#515151" stroke-width="100" />
      <path d="M0 0L100 0L100 400L0 400L0 0Z" transform="translate(50 192)" id="left" fill="#515151" fill-rule="evenodd" stroke="none" />
      <path d="M0 0L100 0L100 400L0 400L0 0Z" transform="translate(634 192)" id="right" fill="#515151" fill-rule="evenodd" stroke="none" />
      <path d="M0 0L400 0L400 100L0 100L0 0Z" transform="translate(192 634)" id="bottom" fill="#515151" fill-rule="evenodd" stroke="none" />
      <path d="M0 0L400 0L400 100L0 100L0 0Z" transform="translate(192 50)" id="up" fill="#515151" fill-rule="evenodd" stroke="none" />
    </g>
  </g>
</svg>